HIERARCHY
ROOT Hips
{
     OFFSET 0.09481 97.43950 -28.68070
     CHANNELS 6 Xposition Yposition Zposition Zrotation Xrotation Yrotation
     JOINT Spine
     {
          OFFSET -0.00000 11.89050 -0.00000
          CHANNELS 3 Zrotation Xrotation Yrotation
          JOINT Spine1
          {
               OFFSET 0.00000 25.65740 0.12766
               CHANNELS 3 Zrotation Xrotation Yrotation
               JOINT HEad
               {
                    OFFSET 0.00000 8.73416 0.01134
                    CHANNELS 3 Zrotation Xrotation Yrotation
                    End Site
                    {
                         OFFSET -0.29000 12.77420 2.51395
                    }
               }
               JOINT LeftShoulder1
               {
                    OFFSET 8.99000 -0.36225 -0.22000
                    CHANNELS 3 Zrotation Xrotation Yrotation
                    JOINT LeftArm
                    {
                         OFFSET 10.28270 -0.00338 0.32212
                         CHANNELS 3 Zrotation Xrotation Yrotation
                         JOINT LeftForeArm
                         {
                              OFFSET 32.76690 0.09914 -1.42434
                              CHANNELS 3 Zrotation Xrotation Yrotation
                              JOINT LeftHand
                              {
                                   OFFSET 27.56430 0.08536 1.02216
                                   CHANNELS 3 Zrotation Xrotation Yrotation
                                   End Site
                                   {
                                        OFFSET 16.74430 -0.60000 1.50291
                                   }
                              }
                         }
                    }
               }
               JOINT RightShoulder
               {
                    OFFSET -8.99000 -0.36225 -0.22000
                    CHANNELS 3 Zrotation Xrotation Yrotation
                    JOINT RightArm
                    {
                         OFFSET -10.28270 -0.00338 0.32212
                         CHANNELS 3 Zrotation Xrotation Yrotation
                         JOINT RightForeArm
                         {
                              OFFSET -32.89710 0.09914 -1.42434
                              CHANNELS 3 Zrotation Xrotation Yrotation
                              JOINT RightHand
                              {
                                   OFFSET -27.49210 0.08536 1.02216
                                   CHANNELS 3 Zrotation Xrotation Yrotation
                                   End Site
                                   {
                                        OFFSET -16.63120 -0.60000 1.50291
                                   }
                              }
                         }
                    }
               }
          }
     }
     JOINT LeftUpLeg
     {
          OFFSET 8.94580 -8.66707 0.10165
          CHANNELS 3 Zrotation Xrotation Yrotation
          JOINT LeftLeg
          {
               OFFSET 0.00000 -44.42270 1.37270
               CHANNELS 3 Zrotation Xrotation Yrotation
               JOINT LeftFoot
               {
                    OFFSET -0.25355 -42.09240 -1.46059
                    CHANNELS 3 Zrotation Xrotation Yrotation
                    JOINT LeftToes
                    {
                         OFFSET -0.04000 -4.41509 8.49910
                         CHANNELS 3 Zrotation Xrotation Yrotation
                         End Site
                         {
                              OFFSET 0.08000 -0.04745 9.77979
                         }
                    }
               }
          }
     }
     JOINT RightUpLeg
     {
          OFFSET -8.94580 -8.66707 0.10165
          CHANNELS 3 Zrotation Xrotation Yrotation
          JOINT RightLeg
          {
               OFFSET -0.00000 -44.42270 1.37270
               CHANNELS 3 Zrotation Xrotation Yrotation
               JOINT RightFoot
               {
                    OFFSET 0.25355 -42.09240 -1.46059
                    CHANNELS 3 Zrotation Xrotation Yrotation
                    JOINT RightToes
                    {
                         OFFSET 0.04000 -4.41509 8.49910
                         CHANNELS 3 Zrotation Xrotation Yrotation
                         End Site
                         {
                              OFFSET -0.08000 -0.13745 9.77979
                         }
                    }
               }
          }
     }
}
MOTION
Frames: 10
Frame Time: 0.01667
-73.90740 90.40080 -7.55116 2.15301 -0.39671 70.66530 0.40788 3.75469 8.26061 -4.39708 7.87466 16.34890 0.38819 6.43457 20.29430 -0.00000 -0.00000 0.00000 -43.43370 -30.57030 -34.95060 -3.69327 -0.17143 -49.57980 5.55594 9.67997 -0.87718 17.30400 1.41504 4.67657 50.32210 -47.81610 60.92580 29.44980 44.34500 92.36060 -5.55712 9.68432 0.87760 15.03390 -31.42200 7.42646 9.40100 34.43730 -30.58690 -24.82900 -17.05580 -2.02395 -0.28571 0.16672 1.23711 -10.22600 12.68930 -4.92123 10.23180 28.24510 -21.94050 5.18520 -20.68280 0.34715 -22.36310 -27.15990 2.67084 
-74.61280 91.18120 -8.30110 1.72144 -0.49785 67.97670 0.96249 3.34957 8.29009 -4.28766 7.19457 16.36810 -0.50647 7.62102 21.96740 -0.00000 -0.00000 0.00000 -44.10860 -31.58680 -34.89490 -4.36990 0.86406 -51.31400 5.55594 9.67997 -0.87718 16.72320 1.37916 4.66714 52.59540 -45.36650 63.21290 29.32430 44.39970 91.46830 -5.55712 9.68432 0.87760 16.36690 -29.76710 7.43731 7.18937 31.74200 -28.13060 -26.82970 -15.54340 -1.83655 -0.08934 -1.49710 0.60694 -10.67090 11.56290 -4.71964 8.92133 27.19050 -18.87660 5.65252 -20.50760 0.39400 -21.73390 -26.41230 3.38818 
-75.22320 91.83190 -9.08395 1.25494 -0.39790 65.18730 1.55259 2.97591 8.25338 -4.16959 6.57407 16.24170 -1.48803 8.24610 23.87210 -0.00000 -0.00000 0.00000 -44.44710 -33.32640 -34.42810 -5.10061 2.04129 -53.15280 5.55594 9.67997 -0.87718 16.05610 1.34437 4.68968 53.95750 -43.15760 65.19860 28.82860 44.17550 90.83280 -5.55712 9.68432 0.87760 17.36790 -28.29940 7.25467 5.48343 29.39290 -26.79480 -28.56410 -14.32090 -1.65278 0.10424 -3.03811 -0.11142 -11.29380 10.23810 -4.71381 7.59004 26.41930 -15.63840 6.28704 -20.73960 0.47916 -21.02630 -25.55870 3.97096 
-75.78270 92.37100 -9.87431 0.82369 -0.19826 62.41940 2.10022 2.68637 8.15098 -4.03635 6.09339 15.99370 -2.35278 8.36667 25.82700 -0.00000 -0.00000 0.00000 -44.45710 -35.41590 -33.88890 -5.75428 3.10914 -54.88970 5.55594 9.67997 -0.87718 15.44050 1.32113 4.76049 54.40990 -41.38720 66.89290 28.04090 43.70750 90.52360 -5.55712 9.68432 0.87760 17.99370 -27.01590 7.02343 4.56403 27.51700 -26.78690 -29.84890 -13.45500 -1.50252 0.29427 -4.42543 -0.92473 -11.86480 8.77879 -4.81211 6.13634 25.91280 -12.57850 6.93954 -21.12090 0.57777 -20.37650 -24.77420 4.27075 
-76.33840 92.82420 -10.65330 0.50767 -0.05102 59.77950 2.54217 2.53432 7.98541 -3.85892 5.83819 15.65880 -2.99004 8.16206 27.68690 -0.00000 -0.00000 0.00000 -44.22870 -37.48190 -33.56980 -6.23611 3.85149 -56.38200 5.55594 9.67997 -0.87718 14.95000 1.30912 4.85668 54.18350 -40.11880 68.28400 27.15140 43.11650 90.45990 -5.55712 9.68432 0.87760 18.28600 -25.82820 6.63070 4.39253 26.22440 -27.67940 -30.58260 -13.00320 -1.41933 0.46076 -5.46009 -1.73728 -12.23400 7.36884 -4.86166 4.63697 25.53970 -10.01800 7.47533 -21.39640 0.65992 -19.89240 -24.20260 4.27438 
-76.91350 93.20740 -11.41210 0.37215 -0.11899 57.34720 2.85138 2.55962 7.76170 -3.60200 5.88050 15.27180 -3.40612 7.83559 29.34620 -0.00000 -0.00000 0.00000 -43.91350 -39.30100 -33.65290 -6.55389 4.24086 -57.65320 5.55594 9.67997 -0.87718 14.59140 1.29929 4.92396 53.62680 -39.27690 69.36760 26.34860 42.53730 90.50310 -5.55712 9.68432 0.87760 18.36310 -24.59180 5.86122 4.69051 25.53220 -28.76790 -30.73500 -13.10740 -1.45569 0.56415 -5.78253 -2.29747 -12.36290 6.24303 -4.79232 3.26903 25.16450 -8.04398 7.82649 -21.46400 0.70787 -19.56800 -23.83790 4.09028 
-77.50070 93.53550 -12.14980 0.42228 -0.50761 55.15880 3.02166 2.76129 7.49276 -3.23498 6.22448 14.85780 -3.67382 7.54805 30.74690 -0.00000 -0.00000 0.00000 -43.64300 -40.83480 -34.16160 -6.80912 4.46476 -58.85720 5.55594 9.67997 -0.87718 14.36040 1.28435 4.91820 52.97170 -38.70020 70.13930 25.69510 42.02570 90.56810 -5.55712 9.68432 0.87760 18.35950 -23.17760 4.63361 5.13478 25.28780 -29.47520 -30.20120 -13.86310 -1.63216 0.57441 -5.17447 -2.38019 -12.28560 5.56784 -4.64703 2.17280 24.67400 -6.58051 7.98504 -21.28290 0.71553 -19.40500 -23.66850 3.87609 
-78.07150 93.83080 -12.86780 0.58795 -1.20892 53.18840 3.05382 3.08645 7.20169 -2.74180 6.78088 14.42760 -3.88855 7.41842 31.90420 -0.00000 -0.00000 0.00000 -43.49660 -42.17330 -34.99230 -7.12918 4.80939 -60.14240 5.55594 9.67997 -0.87718 14.24280 1.26218 4.82942 52.28840 -38.20310 70.61300 25.14410 41.56280 90.63990 -5.55712 9.68432 0.87760 18.36720 -21.53270 3.14002 5.54324 25.15680 -29.52170 -28.83960 -15.10500 -1.87246 0.47959 -3.89549 -1.93716 -12.06010 5.34852 -4.48866 1.38175 23.99050 -5.52494 7.95985 -20.79890 0.68024 -19.45250 -23.74210 3.71623 
-78.58730 94.11070 -13.57030 0.75884 -2.09443 51.37010 2.97392 3.44994 6.90866 -2.13515 7.40398 13.96840 -4.16143 7.53101 32.90550 -0.00000 -0.00000 0.00000 -43.54650 -43.44850 -36.01510 -7.58775 5.48758 -61.53490 5.55594 9.67997 -0.87718 14.19960 1.23312 4.67315 51.59560 -37.62560 70.86180 24.63350 41.11840 90.73620 -5.55712 9.68432 0.87760 18.41860 -19.73580 1.75247 5.90016 24.79530 -28.85190 -26.69060 -16.34300 -2.01714 0.31486 -2.76208 -1.18554 -11.75540 5.42081 -4.32708 0.83293 23.12400 -4.76265 7.76329 -20.01220 0.60619 -19.70850 -24.05750 3.57484 
-79.00910 94.36860 -14.26310 0.84812 -2.96894 49.67220 2.86320 3.76831 6.60834 -1.46454 7.95539 13.43570 -4.58436 7.88238 33.85800 -0.00000 -0.00000 0.00000 -43.85960 -44.73620 -37.13130 -8.16397 6.51450 -62.93450 5.55594 9.67997 -0.87718 14.21220 1.20077 4.47805 50.89870 -36.90090 70.99170 24.15690 40.69280 90.87620 -5.55712 9.68432 0.87760 18.50770 -18.01820 0.78790 6.22539 24.10810 -27.59160 -24.16370 -16.97530 -1.94832 0.18284 -2.75371 -0.53548 -11.45600 5.53447 -4.15134 0.41679 22.21600 -4.13588 7.47334 -19.09020 0.51715 -20.04780 -24.46890 3.41682 
